<svg width="60" height="60" viewBox="0 0 60 60" fill="none" xmlns="http://www.w3.org/2000/svg">
<g clip-path="url(#clip0_100_2499)">
<path d="M58.5925 20.625H51.5765L49.6265 15.75C47.6226 10.7379 42.8402 7.5 37.4413 7.5H22.5585C17.1609 7.5 12.3773 10.7379 10.3722 15.75L8.42221 20.625H1.40736C0.492128 20.625 -0.179357 21.4852 0.0432994 22.3723L0.746424 25.1848C0.902284 25.8105 1.46478 26.25 2.11049 26.25H4.46244C2.88861 27.6246 1.87494 29.6227 1.87494 31.875V37.5C1.87494 39.3891 2.59681 41.0941 3.74994 42.4137V48.75C3.74994 50.8207 5.42924 52.5 7.49994 52.5H11.2499C13.3206 52.5 14.9999 50.8207 14.9999 48.75V45H44.9999V48.75C44.9999 50.8207 46.6792 52.5 48.7499 52.5H52.4999C54.5706 52.5 56.2499 50.8207 56.2499 48.75V42.4137C57.4031 41.0953 58.1249 39.3902 58.1249 37.5V31.875C58.1249 29.6227 57.1113 27.6246 55.5386 26.25H57.8906C58.5363 26.25 59.0988 25.8105 59.2546 25.1848L59.9578 22.3723C60.1792 21.4852 59.5078 20.625 58.5925 20.625ZM17.3355 18.5355C18.1898 16.4004 20.2581 15 22.5585 15H37.4413C39.7417 15 41.8101 16.4004 42.6644 18.5355L44.9999 24.375H14.9999L17.3355 18.5355ZM11.2499 37.4766C8.99994 37.4766 7.49994 35.9812 7.49994 33.7383C7.49994 31.4953 8.99994 30 11.2499 30C13.4999 30 16.8749 33.3645 16.8749 35.6074C16.8749 37.8504 13.4999 37.4766 11.2499 37.4766ZM48.7499 37.4766C46.4999 37.4766 43.1249 37.8504 43.1249 35.6074C43.1249 33.3645 46.4999 30 48.7499 30C50.9999 30 52.4999 31.4953 52.4999 33.7383C52.4999 35.9812 50.9999 37.4766 48.7499 37.4766Z" fill="white"/>
</g>
<defs>
<clipPath id="clip0_100_2499">
<rect width="60" height="60" fill="white"/>
</clipPath>
</defs>
</svg>
