<svg width="40" height="40" viewBox="0 0 40 40" fill="none" xmlns="http://www.w3.org/2000/svg">
<path d="M20 31.6668C20.4421 31.6668 20.866 31.8424 21.1785 32.155C21.4911 32.4675 21.6667 32.8915 21.6667 33.3335V35.0002C21.6667 35.4422 21.4911 35.8661 21.1785 36.1787C20.866 36.4912 20.4421 36.6668 20 36.6668C19.558 36.6668 19.1341 36.4912 18.8215 36.1787C18.509 35.8661 18.3334 35.4422 18.3334 35.0002V33.3335C18.3334 32.8915 18.509 32.4675 18.8215 32.155C19.1341 31.8424 19.558 31.6668 20 31.6668ZM30.6067 28.2502L31.785 29.4285C32.0886 29.7428 32.2566 30.1638 32.2528 30.6008C32.249 31.0378 32.0737 31.4558 31.7647 31.7649C31.4557 32.0739 31.0377 32.2492 30.6007 32.253C30.1637 32.2567 29.7427 32.0888 29.4284 31.7852L28.25 30.6068C27.9464 30.2925 27.7784 29.8715 27.7822 29.4345C27.786 28.9975 27.9613 28.5795 28.2703 28.2705C28.5793 27.9615 28.9974 27.7862 29.4344 27.7824C29.8713 27.7786 30.2924 27.9466 30.6067 28.2502ZM9.39336 28.2502C9.69329 27.9513 10.0957 27.7777 10.519 27.7648C10.9422 27.7519 11.3545 27.9005 11.6722 28.1806C11.9898 28.4606 12.1889 28.8511 12.229 29.2726C12.2692 29.6942 12.1474 30.1152 11.8884 30.4502L11.75 30.6068L10.5717 31.7852C10.2718 32.0841 9.8693 32.2576 9.44605 32.2705C9.0228 32.2835 8.6105 32.1348 8.29289 31.8547C7.97529 31.5747 7.77618 31.1842 7.73603 30.7627C7.69587 30.3412 7.81767 29.9201 8.07669 29.5852L8.21502 29.4285L9.39336 28.2502ZM20 10.0002C22.6522 10.0002 25.1957 11.0537 27.0711 12.9291C28.9465 14.8045 30 17.348 30 20.0002C30 22.6523 28.9465 25.1959 27.0711 27.0712C25.1957 28.9466 22.6522 30.0002 20 30.0002C17.3479 30.0002 14.8043 28.9466 12.929 27.0712C11.0536 25.1959 10 22.6523 10 20.0002C10 17.348 11.0536 14.8045 12.929 12.9291C14.8043 11.0537 17.3479 10.0002 20 10.0002ZM6.66669 18.3335C7.09149 18.334 7.50008 18.4966 7.80897 18.7882C8.11787 19.0799 8.30375 19.4784 8.32864 19.9025C8.35354 20.3266 8.21557 20.7441 7.94292 21.0699C7.67027 21.3956 7.28352 21.605 6.86169 21.6552L6.66669 21.6668H5.00003C4.57523 21.6664 4.16664 21.5037 3.85774 21.2121C3.54885 20.9205 3.36297 20.5219 3.33807 20.0978C3.31318 19.6738 3.45115 19.2562 3.7238 18.9304C3.99645 18.6047 4.3832 18.3953 4.80503 18.3452L5.00003 18.3335H6.66669ZM35 18.3335C35.4421 18.3335 35.866 18.5091 36.1785 18.8217C36.4911 19.1342 36.6667 19.5581 36.6667 20.0002C36.6667 20.4422 36.4911 20.8661 36.1785 21.1787C35.866 21.4912 35.4421 21.6668 35 21.6668H33.3334C32.8913 21.6668 32.4674 21.4912 32.1548 21.1787C31.8423 20.8661 31.6667 20.4422 31.6667 20.0002C31.6667 19.5581 31.8423 19.1342 32.1548 18.8217C32.4674 18.5091 32.8913 18.3335 33.3334 18.3335H35ZM8.21502 8.21516C8.50201 7.9282 8.88385 7.75582 9.28889 7.73035C9.69393 7.70488 10.0944 7.82808 10.415 8.07683L10.5717 8.21516L11.75 9.3935C12.0489 9.69343 12.2225 10.0959 12.2354 10.5191C12.2483 10.9424 12.0997 11.3547 11.8196 11.6723C11.5396 11.9899 11.1491 12.189 10.7276 12.2292C10.306 12.2693 9.88501 12.1475 9.55002 11.8885L9.39336 11.7502L8.21502 10.5718C7.90257 10.2593 7.72705 9.83544 7.72705 9.3935C7.72705 8.95156 7.90257 8.52771 8.21502 8.21516ZM31.785 8.21516C32.0975 8.52771 32.273 8.95156 32.273 9.3935C32.273 9.83544 32.0975 10.2593 31.785 10.5718L30.6067 11.7502C30.4529 11.9093 30.269 12.0363 30.0657 12.1237C29.8624 12.211 29.6437 12.257 29.4224 12.2589C29.2011 12.2608 28.9816 12.2187 28.7768 12.1349C28.5719 12.0511 28.3859 11.9273 28.2294 11.7708C28.0729 11.6143 27.9491 11.4282 27.8653 11.2234C27.7815 11.0186 27.7393 10.7991 27.7413 10.5778C27.7432 10.3565 27.7892 10.1378 27.8765 9.93449C27.9639 9.73115 28.0908 9.54724 28.25 9.3935L29.4284 8.21516C29.7409 7.90271 30.1648 7.72719 30.6067 7.72719C31.0486 7.72719 31.4725 7.90271 31.785 8.21516ZM20 3.3335C20.4421 3.3335 20.866 3.50909 21.1785 3.82165C21.4911 4.13421 21.6667 4.55814 21.6667 5.00016V6.66683C21.6667 7.10886 21.4911 7.53278 21.1785 7.84534C20.866 8.1579 20.4421 8.3335 20 8.3335C19.558 8.3335 19.1341 8.1579 18.8215 7.84534C18.509 7.53278 18.3334 7.10886 18.3334 6.66683V5.00016C18.3334 4.55814 18.509 4.13421 18.8215 3.82165C19.1341 3.50909 19.558 3.3335 20 3.3335Z" fill="#D7FF25"/>
</svg>
